<svg aria-roledescription="er" role="graphics-document document" viewBox="-13.360298156738281 0 194.519287109375 366" style="max-width: 194.519px; background-color: white;" xmlns:xlink="http://www.w3.org/1999/xlink" xmlns="http://www.w3.org/2000/svg" width="100%" id="my-svg"><style>#my-svg{font-family:"trebuchet ms",verdana,arial,sans-serif;font-size:16px;fill:#000000;}#my-svg .error-icon{fill:#552222;}#my-svg .error-text{fill:#552222;stroke:#552222;}#my-svg .edge-thickness-normal{stroke-width:2px;}#my-svg .edge-thickness-thick{stroke-width:3.5px;}#my-svg .edge-pattern-solid{stroke-dasharray:0;}#my-svg .edge-pattern-dashed{stroke-dasharray:3;}#my-svg .edge-pattern-dotted{stroke-dasharray:2;}#my-svg .marker{fill:#000000;stroke:#000000;}#my-svg .marker.cross{stroke:#000000;}#my-svg svg{font-family:"trebuchet ms",verdana,arial,sans-serif;font-size:16px;}#my-svg .entityBox{fill:#cde498;stroke:#13540c;}#my-svg .attributeBoxOdd{fill:#ffffff;stroke:#13540c;}#my-svg .attributeBoxEven{fill:#f2f2f2;stroke:#13540c;}#my-svg .relationshipLabelBox{fill:hsl(78.1578947368, 58.4615384615%, 84.5098039216%);opacity:0.7;background-color:hsl(78.1578947368, 58.4615384615%, 84.5098039216%);}#my-svg .relationshipLabelBox rect{opacity:0.5;}#my-svg .relationshipLine{stroke:#000000;}#my-svg .entityTitleText{text-anchor:middle;font-size:18px;fill:#000000;}#my-svg #MD_PARENT_START{fill:#f5f5f5!important;stroke:#000000!important;stroke-width:1;}#my-svg #MD_PARENT_END{fill:#f5f5f5!important;stroke:#000000!important;stroke-width:1;}#my-svg :root{--mermaid-font-family:"trebuchet ms",verdana,arial,sans-serif;}</style><g/><defs><marker orient="auto" markerHeight="240" markerWidth="190" refY="7" refX="0" id="MD_PARENT_START"><path d="M 18,7 L9,13 L1,7 L9,1 Z"/></marker></defs><defs><marker orient="auto" markerHeight="28" markerWidth="20" refY="7" refX="19" id="MD_PARENT_END"><path d="M 18,7 L9,13 L1,7 L9,1 Z"/></marker></defs><defs><marker orient="auto" markerHeight="18" markerWidth="18" refY="9" refX="0" id="ONLY_ONE_START"><path d="M9,0 L9,18 M15,0 L15,18" fill="none" stroke="gray"/></marker></defs><defs><marker orient="auto" markerHeight="18" markerWidth="18" refY="9" refX="18" id="ONLY_ONE_END"><path d="M3,0 L3,18 M9,0 L9,18" fill="none" stroke="gray"/></marker></defs><defs><marker orient="auto" markerHeight="18" markerWidth="30" refY="9" refX="0" id="ZERO_OR_ONE_START"><circle r="6" cy="9" cx="21" fill="white" stroke="gray"/><path d="M9,0 L9,18" fill="none" stroke="gray"/></marker></defs><defs><marker orient="auto" markerHeight="18" markerWidth="30" refY="9" refX="30" id="ZERO_OR_ONE_END"><circle r="6" cy="9" cx="9" fill="white" stroke="gray"/><path d="M21,0 L21,18" fill="none" stroke="gray"/></marker></defs><defs><marker orient="auto" markerHeight="36" markerWidth="45" refY="18" refX="18" id="ONE_OR_MORE_START"><path d="M0,18 Q 18,0 36,18 Q 18,36 0,18 M42,9 L42,27" fill="none" stroke="gray"/></marker></defs><defs><marker orient="auto" markerHeight="36" markerWidth="45" refY="18" refX="27" id="ONE_OR_MORE_END"><path d="M3,9 L3,27 M9,18 Q27,0 45,18 Q27,36 9,18" fill="none" stroke="gray"/></marker></defs><defs><marker orient="auto" markerHeight="36" markerWidth="57" refY="18" refX="18" id="ZERO_OR_MORE_START"><circle r="6" cy="18" cx="48" fill="white" stroke="gray"/><path d="M0,18 Q18,0 36,18 Q18,36 0,18" fill="none" stroke="gray"/></marker></defs><defs><marker orient="auto" markerHeight="36" markerWidth="57" refY="18" refX="39" id="ZERO_OR_MORE_END"><circle r="6" cy="18" cx="9" fill="white" stroke="gray"/><path d="M21,18 Q39,0 57,18 Q39,36 21,18" fill="none" stroke="gray"/></marker></defs><path style="stroke: gray; fill: none;" marker-start="url(#ZERO_OR_MORE_START)" marker-end="url(#ZERO_OR_MORE_END)" d="M61.36837912354794,111L57.00537737834724,119.33333333333333C52.64237563314654,127.66666666666667,43.91637214274514,144.33333333333334,43.09946968832458,161C42.28256723390403,177.66666666666666,49.374765815464315,194.33333333333334,52.920865106244456,202.66666666666666L56.4669643970246,211" class="er relationshipLine"/><path style="stroke: gray; fill: none;" marker-start="url(#ZERO_OR_ONE_START)" marker-end="url(#ONLY_ONE_END)" d="M113.9137729076629,211L117.45987219844305,202.66666666666666C121.0059714892232,194.33333333333334,128.09817007078348,177.66666666666666,127.28126761636291,161C126.46436516194235,144.33333333333334,117.73836167154097,127.66666666666667,113.37535992634027,119.33333333333333L109.01235818113956,111" class="er relationshipLine"/><g transform="translate(26.479583740234375,20 )" id="entity-Meta-9d6e178d-92b8-52f7-88e1-999b69daa9dc"><rect height="91" width="117.42156982421875" y="0" x="0" class="er entityBox"/><text style="dominant-baseline: middle; text-anchor: middle; font-size: 12px;" transform="translate(58.710784912109375,12)" y="0" x="0" id="text-entity-Meta-9d6e178d-92b8-52f7-88e1-999b69daa9dc" class="er entityLabel">Meta</text><rect height="23" width="37.39605712890625" y="24" x="0" class="er attributeBoxOdd"/><text style="dominant-baseline: middle; font-size: 10.2px;" transform="translate(5,35.5)" y="0" x="0" id="text-entity-Meta-9d6e178d-92b8-52f7-88e1-999b69daa9dc-attr-1-type" class="er entityLabel">Int</text><rect height="23" width="57.4473876953125" y="24" x="37.39605712890625" class="er attributeBoxOdd"/><text style="dominant-baseline: middle; font-size: 10.2px;" transform="translate(42.39605712890625,35.5)" y="0" x="0" id="text-entity-Meta-9d6e178d-92b8-52f7-88e1-999b69daa9dc-attr-1-name" class="er entityLabel">id_meta</text><rect height="23" width="22.578125" y="24" x="94.84344482421875" class="er attributeBoxOdd"/><text style="dominant-baseline: middle; font-size: 10.2px;" transform="translate(99.84344482421875,35.5)" y="0" x="0" id="text-entity-Meta-9d6e178d-92b8-52f7-88e1-999b69daa9dc-attr-1-comment" class="er entityLabel">🗝️</text><rect height="22" width="37.39605712890625" y="47" x="0" class="er attributeBoxEven"/><text style="dominant-baseline: middle; font-size: 10.2px;" transform="translate(5,58)" y="0" x="0" id="text-entity-Meta-9d6e178d-92b8-52f7-88e1-999b69daa9dc-attr-2-type" class="er entityLabel">String</text><rect height="22" width="57.4473876953125" y="47" x="37.39605712890625" class="er attributeBoxEven"/><text style="dominant-baseline: middle; font-size: 10.2px;" transform="translate(42.39605712890625,58)" y="0" x="0" id="text-entity-Meta-9d6e178d-92b8-52f7-88e1-999b69daa9dc-attr-2-name" class="er entityLabel">descricao</text><rect height="22" width="22.578125" y="47" x="94.84344482421875" class="er attributeBoxEven"/><text style="dominant-baseline: middle; font-size: 10.2px;" transform="translate(99.84344482421875,58)" y="0" x="0" id="text-entity-Meta-9d6e178d-92b8-52f7-88e1-999b69daa9dc-attr-2-comment" class="er entityLabel"/><rect height="22" width="37.39605712890625" y="69" x="0" class="er attributeBoxOdd"/><text style="dominant-baseline: middle; font-size: 10.2px;" transform="translate(5,80)" y="0" x="0" id="text-entity-Meta-9d6e178d-92b8-52f7-88e1-999b69daa9dc-attr-3-type" class="er entityLabel">String</text><rect height="22" width="57.4473876953125" y="69" x="37.39605712890625" class="er attributeBoxOdd"/><text style="dominant-baseline: middle; font-size: 10.2px;" transform="translate(42.39605712890625,80)" y="0" x="0" id="text-entity-Meta-9d6e178d-92b8-52f7-88e1-999b69daa9dc-attr-3-name" class="er entityLabel">id_usuario</text><rect height="22" width="22.578125" y="69" x="94.84344482421875" class="er attributeBoxOdd"/><text style="dominant-baseline: middle; font-size: 10.2px;" transform="translate(99.84344482421875,80)" y="0" x="0" id="text-entity-Meta-9d6e178d-92b8-52f7-88e1-999b69daa9dc-attr-3-comment" class="er entityLabel"/></g><g transform="translate(20,211 )" id="entity-Tarefa-06b04901-fd6f-5fee-b7bf-7e22726caadb"><rect height="135" width="130.3807373046875" y="0" x="0" class="er entityBox"/><text style="dominant-baseline: middle; text-anchor: middle; font-size: 12px;" transform="translate(65.19036865234375,12)" y="0" x="0" id="text-entity-Tarefa-06b04901-fd6f-5fee-b7bf-7e22726caadb" class="er entityLabel">Tarefa</text><rect height="23" width="54.095550537109375" y="24" x="0" class="er attributeBoxOdd"/><text style="dominant-baseline: middle; font-size: 10.2px;" transform="translate(5,35.5)" y="0" x="0" id="text-entity-Tarefa-06b04901-fd6f-5fee-b7bf-7e22726caadb-attr-1-type" class="er entityLabel">Int</text><rect height="23" width="53.707061767578125" y="24" x="54.095550537109375" class="er attributeBoxOdd"/><text style="dominant-baseline: middle; font-size: 10.2px;" transform="translate(59.095550537109375,35.5)" y="0" x="0" id="text-entity-Tarefa-06b04901-fd6f-5fee-b7bf-7e22726caadb-attr-1-name" class="er entityLabel">id_tarefa</text><rect height="23" width="22.578125" y="24" x="107.8026123046875" class="er attributeBoxOdd"/><text style="dominant-baseline: middle; font-size: 10.2px;" transform="translate(112.8026123046875,35.5)" y="0" x="0" id="text-entity-Tarefa-06b04901-fd6f-5fee-b7bf-7e22726caadb-attr-1-comment" class="er entityLabel">🗝️</text><rect height="22" width="54.095550537109375" y="47" x="0" class="er attributeBoxEven"/><text style="dominant-baseline: middle; font-size: 10.2px;" transform="translate(5,58)" y="0" x="0" id="text-entity-Tarefa-06b04901-fd6f-5fee-b7bf-7e22726caadb-attr-2-type" class="er entityLabel">String</text><rect height="22" width="53.707061767578125" y="47" x="54.095550537109375" class="er attributeBoxEven"/><text style="dominant-baseline: middle; font-size: 10.2px;" transform="translate(59.095550537109375,58)" y="0" x="0" id="text-entity-Tarefa-06b04901-fd6f-5fee-b7bf-7e22726caadb-attr-2-name" class="er entityLabel">descricao</text><rect height="22" width="22.578125" y="47" x="107.8026123046875" class="er attributeBoxEven"/><text style="dominant-baseline: middle; font-size: 10.2px;" transform="translate(112.8026123046875,58)" y="0" x="0" id="text-entity-Tarefa-06b04901-fd6f-5fee-b7bf-7e22726caadb-attr-2-comment" class="er entityLabel"/><rect height="22" width="54.095550537109375" y="69" x="0" class="er attributeBoxOdd"/><text style="dominant-baseline: middle; font-size: 10.2px;" transform="translate(5,80)" y="0" x="0" id="text-entity-Tarefa-06b04901-fd6f-5fee-b7bf-7e22726caadb-attr-3-type" class="er entityLabel">String</text><rect height="22" width="53.707061767578125" y="69" x="54.095550537109375" class="er attributeBoxOdd"/><text style="dominant-baseline: middle; font-size: 10.2px;" transform="translate(59.095550537109375,80)" y="0" x="0" id="text-entity-Tarefa-06b04901-fd6f-5fee-b7bf-7e22726caadb-attr-3-name" class="er entityLabel">status</text><rect height="22" width="22.578125" y="69" x="107.8026123046875" class="er attributeBoxOdd"/><text style="dominant-baseline: middle; font-size: 10.2px;" transform="translate(112.8026123046875,80)" y="0" x="0" id="text-entity-Tarefa-06b04901-fd6f-5fee-b7bf-7e22726caadb-attr-3-comment" class="er entityLabel"/><rect height="22" width="54.095550537109375" y="91" x="0" class="er attributeBoxEven"/><text style="dominant-baseline: middle; font-size: 10.2px;" transform="translate(5,102)" y="0" x="0" id="text-entity-Tarefa-06b04901-fd6f-5fee-b7bf-7e22726caadb-attr-4-type" class="er entityLabel">DateTime</text><rect height="22" width="53.707061767578125" y="91" x="54.095550537109375" class="er attributeBoxEven"/><text style="dominant-baseline: middle; font-size: 10.2px;" transform="translate(59.095550537109375,102)" y="0" x="0" id="text-entity-Tarefa-06b04901-fd6f-5fee-b7bf-7e22726caadb-attr-4-name" class="er entityLabel">inicio</text><rect height="22" width="22.578125" y="91" x="107.8026123046875" class="er attributeBoxEven"/><text style="dominant-baseline: middle; font-size: 10.2px;" transform="translate(112.8026123046875,102)" y="0" x="0" id="text-entity-Tarefa-06b04901-fd6f-5fee-b7bf-7e22726caadb-attr-4-comment" class="er entityLabel"/><rect height="22" width="54.095550537109375" y="113" x="0" class="er attributeBoxOdd"/><text style="dominant-baseline: middle; font-size: 10.2px;" transform="translate(5,124)" y="0" x="0" id="text-entity-Tarefa-06b04901-fd6f-5fee-b7bf-7e22726caadb-attr-5-type" class="er entityLabel">DateTime</text><rect height="22" width="53.707061767578125" y="113" x="54.095550537109375" class="er attributeBoxOdd"/><text style="dominant-baseline: middle; font-size: 10.2px;" transform="translate(59.095550537109375,124)" y="0" x="0" id="text-entity-Tarefa-06b04901-fd6f-5fee-b7bf-7e22726caadb-attr-5-name" class="er entityLabel">fim</text><rect height="22" width="22.578125" y="113" x="107.8026123046875" class="er attributeBoxOdd"/><text style="dominant-baseline: middle; font-size: 10.2px;" transform="translate(112.8026123046875,124)" y="0" x="0" id="text-entity-Tarefa-06b04901-fd6f-5fee-b7bf-7e22726caadb-attr-5-comment" class="er entityLabel"/></g><rect height="14" width="72.693359375" y="153.28036499023438" x="6.793022155761719" class="er relationshipLabelBox"/><text style="text-anchor: middle; dominant-baseline: middle; font-size: 12px;" y="160.28036499023438" x="43.13970184326172" id="rel1" class="er relationshipLabel">Metas_Tarefa</text><rect height="14" width="67.8359375" y="153.28038024902344" x="93.32306671142578" class="er relationshipLabelBox"/><text style="text-anchor: middle; dominant-baseline: middle; font-size: 12px;" y="160.28038024902344" x="127.24103546142578" id="rel2" class="er relationshipLabel">Tarefa_Meta</text></svg>